<svg width="26" height="23" viewBox="0 0 26 23" fill="none" xmlns="http://www.w3.org/2000/svg">
<path fill-rule="evenodd" clip-rule="evenodd" d="M2.12512 7.625H3.54175V13.9792H21.9579V7.625H23.3745V13.9792H24.437C24.5309 13.9792 24.621 14.0126 24.6874 14.0722C24.7538 14.1318 24.7912 14.2126 24.7912 14.2969V14.9323C24.7912 15.0166 24.7538 15.0974 24.6874 15.1569C24.621 15.2165 24.5309 15.25 24.437 15.25H1.06265C0.968725 15.25 0.878644 15.2165 0.812226 15.1569C0.745809 15.0974 0.708496 15.0166 0.708496 14.9323V14.2969C0.708496 14.2126 0.745809 14.1318 0.812226 14.0722C0.878644 14.0126 0.968725 13.9792 1.06265 13.9792H2.12512V7.625ZM2.83344 17.1563V21.6042H22.6662V17.1563H2.83344ZM2.12512 15.8854C1.93727 15.8854 1.7571 15.9524 1.62427 16.0715C1.49144 16.1907 1.41681 16.3523 1.41681 16.5208V22.2396C1.41681 22.4081 1.49144 22.5697 1.62427 22.6889C1.7571 22.8081 1.93727 22.875 2.12512 22.875H23.3745C23.5624 22.875 23.7426 22.8081 23.8754 22.6889C24.0082 22.5697 24.0828 22.4081 24.0828 22.2396V16.5208C24.0828 16.3523 24.0082 16.1907 23.8754 16.0715C23.7426 15.9524 23.5624 15.8854 23.3745 15.8854H2.12512Z" fill="black"/>
<path fill-rule="evenodd" clip-rule="evenodd" d="M2.96713 1.27083L1.44779 5.02805C1.42734 5.07835 1.4168 5.13146 1.41663 5.185V6.70365C1.41663 7.2177 1.87491 7.625 2.42881 7.625C2.98129 7.625 3.44028 7.21834 3.44028 6.70428C3.44028 6.53576 3.5149 6.37414 3.64774 6.25498C3.78057 6.13581 3.96074 6.06887 4.14859 6.06887C4.33645 6.06887 4.51661 6.13581 4.64945 6.25498C4.78228 6.37414 4.85691 6.53576 4.85691 6.70428C4.85691 7.2177 5.31589 7.625 5.86909 7.625C6.42157 7.625 6.88056 7.21834 6.88056 6.70428C6.88056 6.53576 6.95518 6.37414 7.08802 6.25498C7.22085 6.13581 7.40102 6.06887 7.58887 6.06887C7.77673 6.06887 7.95689 6.13581 8.08973 6.25498C8.22256 6.37414 8.29719 6.53576 8.29719 6.70428C8.29719 7.2177 8.75617 7.625 9.30937 7.625C9.86185 7.625 10.3208 7.21834 10.3208 6.70492C10.3208 6.5364 10.3955 6.37478 10.5283 6.25561C10.6611 6.13645 10.8413 6.0695 11.0292 6.0695C11.217 6.0695 11.3972 6.13645 11.53 6.25561C11.6628 6.37478 11.7375 6.5364 11.7375 6.70492C11.7382 7.21834 12.1972 7.625 12.7496 7.625C13.3021 7.625 13.7618 7.21834 13.7618 6.70428C13.7618 6.53576 13.8365 6.37414 13.9693 6.25498C14.1021 6.13581 14.2823 6.06887 14.4701 6.06887C14.658 6.06887 14.8382 6.13581 14.971 6.25498C15.1038 6.37414 15.1785 6.53576 15.1785 6.70428C15.1785 7.2177 15.6367 7.625 16.1899 7.625C16.7424 7.625 17.2014 7.21834 17.2021 6.70492C17.2021 6.5364 17.2767 6.37478 17.4096 6.25561C17.5424 6.13645 17.7226 6.0695 17.9104 6.0695C18.0983 6.0695 18.2784 6.13645 18.4113 6.25561C18.5441 6.37478 18.6187 6.5364 18.6187 6.70492C18.6187 7.21834 19.0777 7.625 19.6302 7.625C20.1834 7.625 20.6424 7.21834 20.6424 6.70428C20.6424 6.53576 20.717 6.37414 20.8498 6.25498C20.9827 6.13581 21.1628 6.06887 21.3507 6.06887C21.5386 6.06887 21.7187 6.13581 21.8516 6.25498C21.9844 6.37414 22.059 6.53576 22.059 6.70428C22.059 7.2177 22.5173 7.625 23.0705 7.625C23.6244 7.625 24.0827 7.21834 24.0827 6.70428V5.18564C24.0825 5.13189 24.072 5.07856 24.0515 5.02805L22.5322 1.27083H2.96783H2.96713ZM22.5074 1.20983L22.608 1.17679L22.5074 1.20983ZM21.3507 8.25152C21.1259 8.45597 20.858 8.61823 20.5627 8.72885C20.2673 8.83947 19.9503 8.89623 19.6302 8.89584C19.3102 8.89618 18.9934 8.83939 18.6981 8.72877C18.4028 8.61815 18.1351 8.45592 17.9104 8.25152C17.6857 8.456 17.4178 8.61827 17.1224 8.7289C16.827 8.83952 16.51 8.89627 16.1899 8.89584C15.8699 8.89618 15.5531 8.83939 15.2578 8.72877C14.9626 8.61815 14.6948 8.45592 14.4701 8.25152C14.2454 8.456 13.9775 8.61827 13.6821 8.7289C13.3867 8.83952 13.0697 8.89627 12.7496 8.89584C12.4295 8.89627 12.1126 8.83952 11.8172 8.7289C11.5218 8.61827 11.2539 8.456 11.0292 8.25152C10.8045 8.45592 10.5367 8.61815 10.2415 8.72877C9.9462 8.83939 9.62934 8.89618 9.30937 8.89584C8.63576 8.89584 8.02732 8.64866 7.58887 8.25152C7.36421 8.45592 7.09645 8.61815 6.80118 8.72877C6.50592 8.83939 6.18906 8.89618 5.86909 8.89584C5.549 8.89623 5.23202 8.83947 4.93663 8.72885C4.64125 8.61823 4.37336 8.45597 4.14859 8.25152C3.92402 8.45584 3.65637 8.61803 3.36123 8.72865C3.06609 8.83927 2.74937 8.8961 2.42952 8.89584C1.0816 8.89584 0 7.90967 0 6.70428V5.18564C0 4.98421 0.0389573 4.78405 0.115455 4.5947L1.65958 0.775844C1.75118 0.548549 1.91866 0.352108 2.1392 0.213277C2.35974 0.0744454 2.62262 -2.78118e-05 2.89204 7.7912e-09H22.6087C22.8779 0.000280565 23.1406 0.0749679 23.3608 0.213902C23.5811 0.352835 23.7483 0.549269 23.8397 0.776479L25.3838 4.5947C25.461 4.78405 25.5 4.98421 25.5 5.18564V6.70428C25.4993 7.90967 24.4177 8.89584 23.0705 8.89584C22.7505 8.89618 22.4337 8.83939 22.1384 8.72877C21.8431 8.61815 21.5754 8.45592 21.3507 8.25152Z" fill="black"/>
<path d="M4.25 12.3905C4.25 12.3062 4.28731 12.2254 4.35373 12.1658C4.42015 12.1062 4.51023 12.0728 4.60416 12.0728H6.7291C6.82303 12.0728 6.91311 12.1062 6.97953 12.1658C7.04594 12.2254 7.08326 12.3062 7.08326 12.3905V13.6613C7.08326 13.7456 7.04594 13.8264 6.97953 13.886C6.91311 13.9455 6.82303 13.979 6.7291 13.979H4.60416C4.51023 13.979 4.42015 13.9455 4.35373 13.886C4.28731 13.8264 4.25 13.7456 4.25 13.6613V12.3905Z" fill="black"/>
<path d="M5.6665 13.0262C5.6665 12.9419 5.70382 12.8611 5.77023 12.8016C5.83665 12.742 5.92673 12.7085 6.02066 12.7085H8.1456C8.23953 12.7085 8.32961 12.742 8.39603 12.8016C8.46245 12.8611 8.49976 12.9419 8.49976 13.0262V13.6616C8.49976 13.7459 8.46245 13.8267 8.39603 13.8863C8.32961 13.9459 8.23953 13.9793 8.1456 13.9793H6.02066C5.92673 13.9793 5.83665 13.9459 5.77023 13.8863C5.70382 13.8267 5.6665 13.7459 5.6665 13.6616V13.0262Z" fill="black"/>
<path d="M11.3329 13.0259C11.3329 13.2787 11.221 13.5211 11.0218 13.6998C10.8225 13.8786 10.5523 13.979 10.2705 13.979C9.98869 13.979 9.71845 13.8786 9.5192 13.6998C9.31995 13.5211 9.20801 13.2787 9.20801 13.0259C9.20801 12.7731 9.31995 12.5307 9.5192 12.3519C9.71845 12.1732 9.98869 12.0728 10.2705 12.0728C10.5523 12.0728 10.8225 12.1732 11.0218 12.3519C11.221 12.5307 11.3329 12.7731 11.3329 13.0259V13.0259Z" fill="black"/>
</svg>
