<svg width="22" height="22" viewBox="0 0 22 22" fill="none" xmlns="http://www.w3.org/2000/svg">
<path d="M0.66 7.33333H2.2C2.321 7.33333 2.42 7.23021 2.42 7.10417V2.0625H7.26C7.381 2.0625 7.48 1.95938 7.48 1.83333V0.229167C7.48 0.103125 7.381 0 7.26 0H2.31C1.276 0 0.44 0.870833 0.44 1.94792V7.10417C0.44 7.23021 0.539 7.33333 0.66 7.33333ZM14.74 2.0625H19.58V7.10417C19.58 7.23021 19.679 7.33333 19.8 7.33333H21.34C21.461 7.33333 21.56 7.23021 21.56 7.10417V1.94792C21.56 0.870833 20.724 0 19.69 0H14.74C14.619 0 14.52 0.103125 14.52 0.229167V1.83333C14.52 1.95938 14.619 2.0625 14.74 2.0625ZM7.26 19.9375H2.42V14.8958C2.42 14.7698 2.321 14.6667 2.2 14.6667H0.66C0.539 14.6667 0.44 14.7698 0.44 14.8958V20.0521C0.44 21.1292 1.276 22 2.31 22H7.26C7.381 22 7.48 21.8969 7.48 21.7708V20.1667C7.48 20.0406 7.381 19.9375 7.26 19.9375ZM21.34 14.6667H19.8C19.679 14.6667 19.58 14.7698 19.58 14.8958V19.9375H14.74C14.619 19.9375 14.52 20.0406 14.52 20.1667V21.7708C14.52 21.8969 14.619 22 14.74 22H19.69C20.724 22 21.56 21.1292 21.56 20.0521V14.8958C21.56 14.7698 21.461 14.6667 21.34 14.6667ZM21.78 9.96875H0.22C0.099 9.96875 0 10.0719 0 10.1979V11.8021C0 11.9281 0.099 12.0312 0.22 12.0312H21.78C21.901 12.0312 22 11.9281 22 11.8021V10.1979C22 10.0719 21.901 9.96875 21.78 9.96875Z" fill="#3A3A3A"/>
</svg>
