<svg width="40" height="30" viewBox="0 0 40 30" fill="none" xmlns="http://www.w3.org/2000/svg">
<path d="M0 6.25C0 4.5924 0.65848 3.00269 1.83058 1.83058C3.00268 0.65848 4.5924 0 6.25 0H33.75C35.4076 0 36.9973 0.65848 38.1694 1.83058C39.3415 3.00269 40 4.5924 40 6.25V23.75C40 25.4076 39.3415 26.9973 38.1694 28.1694C36.9973 29.3415 35.4076 30 33.75 30H6.25C4.5924 30 3.00268 29.3415 1.83058 28.1694C0.65848 26.9973 0 25.4076 0 23.75V6.25ZM2.5 23.75C2.5 24.7446 2.89509 25.6984 3.59835 26.4017C4.30161 27.1049 5.25544 27.5 6.25 27.5H33.75C34.7446 27.5 35.6984 27.1049 36.4016 26.4017C37.1049 25.6984 37.5 24.7446 37.5 23.75V12.5H2.5V23.75ZM37.5 6.25C37.5 5.25544 37.1049 4.30161 36.4016 3.59835C35.6984 2.89509 34.7446 2.5 33.75 2.5H6.25C5.25544 2.5 4.30161 2.89509 3.59835 3.59835C2.89509 4.30161 2.5 5.25544 2.5 6.25V10H37.5V6.25Z" fill="#2B47FC" fill-opacity="0.8"/>
</svg>
