<svg width="38" height="38" viewBox="0 0 38 38" fill="none" xmlns="http://www.w3.org/2000/svg">
<path fill-rule="evenodd" clip-rule="evenodd" d="M37.4457 18.7852L19.0603 0.339355L0.55617 18.7831C0.366126 18.9793 0.260743 19.2423 0.262723 19.5154C0.264702 19.7885 0.373884 20.05 0.566752 20.2434C0.759619 20.4368 1.02074 20.5467 1.29387 20.5495C1.567 20.5522 1.83028 20.4476 2.027 20.2581L4.41659 17.8769V36.7081C4.41659 36.9844 4.52633 37.2493 4.72168 37.4447C4.91703 37.64 5.18198 37.7498 5.45825 37.7498H14.8333C15.1095 37.7498 15.3745 37.64 15.5698 37.4447C15.7652 37.2493 15.8749 36.9844 15.8749 36.7081V27.6029C15.8749 27.3266 15.9847 27.0617 16.18 26.8663C16.3754 26.671 16.6403 26.5612 16.9166 26.5612H21.0833C21.3595 26.5612 21.6245 26.671 21.8198 26.8663C22.0152 27.0617 22.1249 27.3266 22.1249 27.6029V36.7071C22.1249 36.9833 22.2347 37.2483 22.43 37.4436C22.6254 37.639 22.8903 37.7487 23.1666 37.7487H32.5416C32.8178 37.7487 33.0828 37.639 33.2782 37.4436C33.4735 37.2483 33.5832 36.9833 33.5832 36.7071V17.8623L35.9707 20.2571C36.1669 20.4471 36.4299 20.5525 36.7031 20.5505C36.9762 20.5485 37.2376 20.4393 37.431 20.2465C37.6244 20.0536 37.7344 19.7925 37.7371 19.5194C37.7399 19.2462 37.6352 18.983 37.4457 18.7862V18.7852ZM31.4999 15.7706L19.0551 3.28519L6.49992 15.7998V35.6664H13.7916V27.6029C13.7916 26.7741 14.1208 25.9792 14.7069 25.3932C15.2929 24.8071 16.0878 24.4779 16.9166 24.4779H21.0833C21.9121 24.4779 22.7069 24.8071 23.293 25.3932C23.879 25.9792 24.2082 26.7741 24.2082 27.6029V35.6654H31.4999V15.7706Z" fill="#3A3A3A" fill-opacity="0.8"/>
</svg>
