<svg width="50" height="50" viewBox="0 0 50 50" fill="none" xmlns="http://www.w3.org/2000/svg">
<path d="M33.75 32.5C33.4185 32.5 33.1005 32.6317 32.8661 32.8661C32.6317 33.1005 32.5 33.4185 32.5 33.75C32.5 34.0815 32.6317 34.3995 32.8661 34.6339C33.1005 34.8683 33.4185 35 33.75 35H38.75C39.0815 35 39.3995 34.8683 39.6339 34.6339C39.8683 34.3995 40 34.0815 40 33.75C40 33.4185 39.8683 33.1005 39.6339 32.8661C39.3995 32.6317 39.0815 32.5 38.75 32.5H33.75Z" fill="#3A3A3A" fill-opacity="0.8"/>
<path d="M5 16.25C5 14.5924 5.65848 13.0027 6.83058 11.8306C8.00268 10.6585 9.5924 10 11.25 10H38.75C40.4076 10 41.9973 10.6585 43.1694 11.8306C44.3415 13.0027 45 14.5924 45 16.25V33.75C45 35.4076 44.3415 36.9973 43.1694 38.1694C41.9973 39.3415 40.4076 40 38.75 40H11.25C9.5924 40 8.00268 39.3415 6.83058 38.1694C5.65848 36.9973 5 35.4076 5 33.75V16.25ZM7.5 33.75C7.5 34.7446 7.89509 35.6984 8.59835 36.4017C9.30161 37.1049 10.2554 37.5 11.25 37.5H38.75C39.7446 37.5 40.6984 37.1049 41.4016 36.4017C42.1049 35.6984 42.5 34.7446 42.5 33.75V22.5H7.5V33.75ZM42.5 16.25C42.5 15.2554 42.1049 14.3016 41.4016 13.5983C40.6984 12.8951 39.7446 12.5 38.75 12.5H11.25C10.2554 12.5 9.30161 12.8951 8.59835 13.5983C7.89509 14.3016 7.5 15.2554 7.5 16.25V20H42.5V16.25Z" fill="#3A3A3A" fill-opacity="0.8"/>
</svg>
