<svg width="305" height="284" viewBox="0 0 305 284" fill="none" xmlns="http://www.w3.org/2000/svg">
<g clip-path="url(#clip0)">
<rect width="281" height="284" transform="translate(24)" fill="white"/>
<path d="M41.5625 267.138V8.875" stroke="#CCCCCC" stroke-linecap="round" stroke-linejoin="round" stroke-dasharray="7 5"/>
<path d="M76.688 267.138V8.875" stroke="#CCCCCC" stroke-linecap="round" stroke-linejoin="round" stroke-dasharray="7 5"/>
<path d="M111.813 267.138V8.875" stroke="#CCCCCC" stroke-linecap="round" stroke-linejoin="round" stroke-dasharray="7 5"/>
<path d="M146.938 267.138V8.875" stroke="#CCCCCC" stroke-linecap="round" stroke-linejoin="round" stroke-dasharray="7 5"/>
<path d="M182.063 267.138V8.875" stroke="#CCCCCC" stroke-linecap="round" stroke-linejoin="round" stroke-dasharray="7 5"/>
<path d="M217.188 267.138V8.875" stroke="#CCCCCC" stroke-linecap="round" stroke-linejoin="round" stroke-dasharray="7 5"/>
<path d="M252.313 267.138V8.875" stroke="#CCCCCC" stroke-linecap="round" stroke-linejoin="round" stroke-dasharray="7 5"/>
<path d="M287.438 267.138V8.875" stroke="#CCCCCC" stroke-linecap="round" stroke-linejoin="round" stroke-dasharray="7 5"/>
<path d="M42 212H164V242H42V212Z" fill="#003B70" fill-opacity="0.7" stroke="#4C4F54" stroke-linejoin="round"/>
<path d="M41 169H218V200H41V169Z" fill="#003B70" fill-opacity="0.7" stroke="#4C4F54" stroke-linejoin="round"/>
<rect x="42" y="123" width="70" height="30" fill="#003B70" fill-opacity="0.7" stroke="#4C4F54" stroke-linejoin="round"/>
<rect x="41" y="76" width="177" height="30" fill="#003B70" fill-opacity="0.7" stroke="#4C4F54" stroke-linejoin="round"/>
<path d="M41 31H132V59H41V31Z" fill="#003B70" fill-opacity="0.7" stroke="#4C4F54" stroke-linejoin="round"/>
<path d="M150.776 42.392C152.397 42.392 153.576 42.6853 154.312 43.272C155.059 43.848 155.432 44.6587 155.432 45.704C155.432 46.3547 155.277 46.936 154.968 47.448C154.669 47.96 154.216 48.3653 153.608 48.664C153 48.952 152.253 49.096 151.368 49.096C150.568 49.096 149.805 48.968 149.08 48.712C148.365 48.4453 147.789 48.0933 147.352 47.656L147.912 46.744C148.285 47.128 148.776 47.4427 149.384 47.688C149.992 47.9227 150.648 48.04 151.352 48.04C152.28 48.04 152.995 47.832 153.496 47.416C154.008 47 154.264 46.4453 154.264 45.752C154.264 44.984 153.976 44.4027 153.4 44.008C152.835 43.6133 151.875 43.416 150.52 43.416H148.136L148.712 37.8H154.84V38.824H149.72L149.336 42.392H150.776Z" fill="#003B70"/>
<path d="M234.936 85.8V97H233.784V86.824H231.144V85.8H234.936ZM242.077 97.096C241.213 97.096 240.44 96.8667 239.757 96.408C239.085 95.9493 238.557 95.2933 238.173 94.44C237.8 93.576 237.613 92.5627 237.613 91.4C237.613 90.2373 237.8 89.2293 238.173 88.376C238.557 87.512 239.085 86.8507 239.757 86.392C240.44 85.9333 241.213 85.704 242.077 85.704C242.941 85.704 243.709 85.9333 244.381 86.392C245.064 86.8507 245.597 87.512 245.981 88.376C246.365 89.2293 246.557 90.2373 246.557 91.4C246.557 92.5627 246.365 93.576 245.981 94.44C245.597 95.2933 245.064 95.9493 244.381 96.408C243.709 96.8667 242.941 97.096 242.077 97.096ZM242.077 96.04C242.728 96.04 243.299 95.8587 243.789 95.496C244.291 95.1333 244.68 94.6053 244.957 93.912C245.235 93.2187 245.373 92.3813 245.373 91.4C245.373 90.4187 245.235 89.5813 244.957 88.888C244.68 88.1947 244.291 87.6667 243.789 87.304C243.299 86.9413 242.728 86.76 242.077 86.76C241.427 86.76 240.851 86.9413 240.349 87.304C239.859 87.6667 239.475 88.1947 239.197 88.888C238.92 89.5813 238.781 90.4187 238.781 91.4C238.781 92.3813 238.92 93.2187 239.197 93.912C239.475 94.6053 239.859 95.1333 240.349 95.496C240.851 95.8587 241.427 96.04 242.077 96.04Z" fill="#003B70"/>
<path d="M135.352 140.056H133.112V143H131.96V140.056H125.64V139.224L131.576 131.8H132.856L127.128 139.032H131.992V136.44H133.112V139.032H135.352V140.056Z" fill="#003B70"/>
<path d="M235.809 178.859V190.059H234.657V179.883H232.017V178.859H235.809ZM242.95 190.155C242.086 190.155 241.313 189.926 240.63 189.467C239.958 189.008 239.43 188.352 239.046 187.499C238.673 186.635 238.486 185.622 238.486 184.459C238.486 183.296 238.673 182.288 239.046 181.435C239.43 180.571 239.958 179.91 240.63 179.451C241.313 178.992 242.086 178.763 242.95 178.763C243.814 178.763 244.582 178.992 245.254 179.451C245.937 179.91 246.47 180.571 246.854 181.435C247.238 182.288 247.43 183.296 247.43 184.459C247.43 185.622 247.238 186.635 246.854 187.499C246.47 188.352 245.937 189.008 245.254 189.467C244.582 189.926 243.814 190.155 242.95 190.155ZM242.95 189.099C243.601 189.099 244.172 188.918 244.662 188.555C245.164 188.192 245.553 187.664 245.83 186.971C246.108 186.278 246.246 185.44 246.246 184.459C246.246 183.478 246.108 182.64 245.83 181.947C245.553 181.254 245.164 180.726 244.662 180.363C244.172 180 243.601 179.819 242.95 179.819C242.3 179.819 241.724 180 241.222 180.363C240.732 180.726 240.348 181.254 240.07 181.947C239.793 182.64 239.654 183.478 239.654 184.459C239.654 185.44 239.793 186.278 240.07 186.971C240.348 187.664 240.732 188.192 241.222 188.555C241.724 188.918 242.3 189.099 242.95 189.099Z" fill="#003B70"/>
<path d="M191.736 221.8V222.616L187.048 233H185.8L190.408 222.824H184.648V224.92H183.512V221.8H191.736Z" fill="#003B70"/>
<path d="M41.5624 7.98779L41.5625 283.113" stroke="#4C4F54" stroke-miterlimit="10" stroke-linecap="round"/>
<path d="M43.527 8.40332L39.5982 8.40332L41.5626 1.78542L43.527 8.40332Z" fill="#4C4F54" stroke="#4C4F54"/>
<path d="M51.3472 5.8623L52.8237 1.11035H53.9839L51.4351 8.42871C51.0405 9.4834 50.4136 10.0107 49.5542 10.0107L49.3491 9.99316L48.9448 9.91699V9.03809L49.2378 9.06152C49.605 9.06152 49.8901 8.9873 50.0933 8.83887C50.3003 8.69043 50.4702 8.41895 50.603 8.02441L50.8433 7.37988L48.5815 1.11035H49.7651L51.3472 5.8623Z" fill="#4C4F54"/>
<path d="M51.3472 5.8623L50.3984 6.17818L51.38 9.1267L52.3021 6.15904L51.3472 5.8623ZM52.8237 1.11035V0.110352H52.0873L51.8688 0.813619L52.8237 1.11035ZM53.9839 1.11035L54.9283 1.43925L55.3911 0.110352H53.9839V1.11035ZM51.4351 8.42871L52.3717 8.77907L52.3757 8.76839L52.3794 8.75761L51.4351 8.42871ZM49.5542 10.0107L49.4688 11.0071L49.5114 11.0107H49.5542V10.0107ZM49.3491 9.99316L49.164 10.9759L49.2135 10.9852L49.2637 10.9895L49.3491 9.99316ZM48.9448 9.91699H47.9448V10.7462L48.7597 10.8997L48.9448 9.91699ZM48.9448 9.03809L49.0246 8.04127L47.9448 7.95489V9.03809H48.9448ZM49.2378 9.06152L49.158 10.0583L49.1979 10.0615H49.2378V9.06152ZM50.0933 8.83887L49.5106 8.02614L49.5032 8.03148L50.0933 8.83887ZM50.603 8.02441L49.666 7.67516L49.6604 7.69018L49.6553 7.70537L50.603 8.02441ZM50.8433 7.37988L51.7803 7.72914L51.9084 7.38551L51.7839 7.04054L50.8433 7.37988ZM48.5815 1.11035V0.110352H47.1577L47.6409 1.44969L48.5815 1.11035ZM49.7651 1.11035L50.7139 0.794475L50.4862 0.110352H49.7651V1.11035ZM52.3021 6.15904L53.7787 1.40708L51.8688 0.813619L50.3922 5.56557L52.3021 6.15904ZM52.8237 2.11035H53.9839V0.110352H52.8237V2.11035ZM53.0395 0.78145L50.4907 8.09981L52.3794 8.75761L54.9283 1.43925L53.0395 0.78145ZM50.4984 8.07835C50.3399 8.50211 50.1668 8.73089 50.0253 8.84995C49.9014 8.95416 49.7609 9.01074 49.5542 9.01074V11.0107C50.2069 11.0107 50.8096 10.8037 51.3126 10.3805C51.798 9.97223 52.1357 9.41 52.3717 8.77907L50.4984 8.07835ZM49.6396 9.0144L49.4345 8.99682L49.2637 10.9895L49.4688 11.0071L49.6396 9.0144ZM49.5343 9.01045L49.13 8.93428L48.7597 10.8997L49.164 10.9759L49.5343 9.01045ZM49.9448 9.91699V9.03809H47.9448V9.91699H49.9448ZM48.8651 10.0349L49.158 10.0583L49.3175 8.06471L49.0246 8.04127L48.8651 10.0349ZM49.2378 10.0615C49.7237 10.0615 50.2464 9.96553 50.6833 9.64626L49.5032 8.03148C49.5339 8.00908 49.4862 8.06152 49.2378 8.06152V10.0615ZM50.6759 9.65156C51.131 9.32532 51.3898 8.8216 51.5508 8.34346L49.6553 7.70537C49.6068 7.84927 49.5615 7.94031 49.5283 7.99338C49.4953 8.04608 49.4848 8.04463 49.5106 8.02617L50.6759 9.65156ZM51.5401 8.37367L51.7803 7.72914L49.9062 7.03063L49.666 7.67516L51.5401 8.37367ZM51.7839 7.04054L49.5222 0.771009L47.6409 1.44969L49.9026 7.71922L51.7839 7.04054ZM48.5815 2.11035H49.7651V0.110352H48.5815V2.11035ZM48.8163 1.42623L50.3984 6.17818L52.296 5.54643L50.7139 0.794475L48.8163 1.42623Z" fill="#4C4F54"/>
<path d="M298.101 266.266H25.7563" stroke="#4C4F54" stroke-miterlimit="10" stroke-linecap="round"/>
<path d="M296.564 268.238V264.261L303.123 266.25L296.564 268.238Z" fill="#4C4F54" stroke="#4C4F54"/>
<path d="M149.463 273.075V274.302H149.198C148.073 274.323 147.177 274.656 146.51 275.302C145.843 275.948 145.458 276.856 145.354 278.028C145.953 277.341 146.77 276.997 147.807 276.997C148.796 276.997 149.586 277.346 150.174 278.044C150.768 278.742 151.065 279.643 151.065 280.747C151.065 281.919 150.744 282.856 150.104 283.56C149.468 284.263 148.614 284.614 147.541 284.614C146.453 284.614 145.57 284.198 144.893 283.364C144.216 282.526 143.877 281.448 143.877 280.13V279.575C143.877 277.481 144.323 275.882 145.213 274.778C146.109 273.669 147.44 273.101 149.205 273.075H149.463ZM147.565 278.2C147.07 278.2 146.614 278.349 146.198 278.646C145.781 278.942 145.492 279.315 145.33 279.763V280.294C145.33 281.231 145.541 281.987 145.963 282.56C146.385 283.132 146.911 283.419 147.541 283.419C148.192 283.419 148.703 283.179 149.073 282.7C149.448 282.221 149.635 281.593 149.635 280.817C149.635 280.036 149.445 279.406 149.065 278.927C148.69 278.442 148.19 278.2 147.565 278.2Z" fill="#4C4F54"/>
<path d="M190.844 276.052C190.844 276.619 190.693 277.125 190.391 277.567C190.094 278.01 189.691 278.356 189.18 278.606C189.774 278.862 190.243 279.234 190.587 279.724C190.936 280.213 191.11 280.768 191.11 281.388C191.11 282.372 190.777 283.156 190.11 283.739C189.449 284.323 188.576 284.614 187.493 284.614C186.399 284.614 185.522 284.323 184.86 283.739C184.204 283.151 183.876 282.367 183.876 281.388C183.876 280.773 184.042 280.218 184.376 279.724C184.714 279.229 185.18 278.854 185.774 278.599C185.269 278.349 184.871 278.002 184.579 277.56C184.287 277.117 184.141 276.614 184.141 276.052C184.141 275.093 184.449 274.333 185.063 273.771C185.678 273.208 186.488 272.927 187.493 272.927C188.493 272.927 189.3 273.208 189.915 273.771C190.535 274.333 190.844 275.093 190.844 276.052ZM189.665 281.356C189.665 280.721 189.462 280.203 189.055 279.802C188.654 279.401 188.128 279.2 187.477 279.2C186.826 279.2 186.303 279.398 185.907 279.794C185.516 280.19 185.321 280.711 185.321 281.356C185.321 282.002 185.511 282.51 185.891 282.88C186.277 283.25 186.811 283.435 187.493 283.435C188.17 283.435 188.701 283.25 189.087 282.88C189.472 282.505 189.665 281.997 189.665 281.356ZM187.493 274.114C186.925 274.114 186.464 274.291 186.11 274.646C185.761 274.994 185.587 275.471 185.587 276.075C185.587 276.653 185.759 277.122 186.102 277.481C186.451 277.836 186.915 278.013 187.493 278.013C188.071 278.013 188.532 277.836 188.876 277.481C189.225 277.122 189.399 276.653 189.399 276.075C189.399 275.497 189.219 275.026 188.86 274.661C188.501 274.297 188.045 274.114 187.493 274.114Z" fill="#4C4F54"/>
<path d="M224.346 284H222.893V274.367L219.979 275.438V274.125L224.12 272.57H224.346V284ZM235.714 279.148C235.714 280.841 235.424 282.099 234.846 282.922C234.268 283.745 233.365 284.156 232.135 284.156C230.922 284.156 230.023 283.755 229.44 282.953C228.857 282.146 228.555 280.943 228.534 279.344V277.414C228.534 275.742 228.823 274.5 229.401 273.688C229.979 272.875 230.885 272.469 232.12 272.469C233.344 272.469 234.245 272.862 234.823 273.648C235.401 274.43 235.698 275.638 235.714 277.273V279.148ZM234.268 277.172C234.268 275.948 234.096 275.057 233.753 274.5C233.409 273.938 232.865 273.656 232.12 273.656C231.38 273.656 230.841 273.935 230.503 274.492C230.164 275.049 229.99 275.906 229.979 277.062V279.375C229.979 280.604 230.156 281.513 230.51 282.102C230.87 282.685 231.411 282.977 232.135 282.977C232.849 282.977 233.378 282.701 233.721 282.148C234.07 281.596 234.253 280.727 234.268 279.539V277.172Z" fill="#4C4F54"/>
<path d="M70.9343 284H63.4812V282.961L67.4187 278.586C68.002 277.924 68.4031 277.388 68.6218 276.977C68.8458 276.56 68.9578 276.13 68.9578 275.688C68.9578 275.094 68.7781 274.607 68.4187 274.227C68.0593 273.846 67.5802 273.656 66.9812 273.656C66.2625 273.656 65.7026 273.862 65.3015 274.273C64.9057 274.68 64.7078 275.247 64.7078 275.977H63.2625C63.2625 274.93 63.5984 274.083 64.2703 273.438C64.9474 272.792 65.851 272.469 66.9812 272.469C68.0385 272.469 68.8744 272.747 69.489 273.305C70.1036 273.857 70.4109 274.594 70.4109 275.516C70.4109 276.635 69.6974 277.969 68.2703 279.516L65.2234 282.82H70.9343V284Z" fill="#4C4F54"/>
<path d="M109.738 280.18H111.316V281.359H109.738V284H108.284V281.359H103.105V280.508L108.198 272.625H109.738V280.18ZM104.745 280.18H108.284V274.602L108.113 274.914L104.745 280.18Z" fill="#4C4F54"/>
<path d="M301.8 255.475L303.207 253.16H304.472L302.398 256.295L304.537 259.5H303.283L301.818 257.127L300.353 259.5H299.093L301.232 256.295L299.158 253.16H300.412L301.8 255.475Z" fill="#4C4F54"/>
<path d="M301.8 255.475L300.943 255.989L301.795 257.409L302.655 255.994L301.8 255.475ZM303.207 253.16V252.16H302.644L302.352 252.641L303.207 253.16ZM304.472 253.16L305.306 253.712L306.333 252.16H304.472V253.16ZM302.398 256.295L301.564 255.743L301.197 256.297L301.566 256.85L302.398 256.295ZM304.537 259.5V260.5H306.406L305.368 258.945L304.537 259.5ZM303.283 259.5L302.432 260.025L302.725 260.5H303.283V259.5ZM301.818 257.127L302.669 256.602L301.818 255.223L300.967 256.602L301.818 257.127ZM300.353 259.5V260.5H300.911L301.204 260.025L300.353 259.5ZM299.093 259.5L298.261 258.945L297.224 260.5H299.093V259.5ZM301.232 256.295L302.064 256.85L302.433 256.297L302.066 255.743L301.232 256.295ZM299.158 253.16V252.16H297.297L298.324 253.712L299.158 253.16ZM300.412 253.16L301.269 252.646L300.978 252.16H300.412V253.16ZM302.655 255.994L304.061 253.679L302.352 252.641L300.946 254.955L302.655 255.994ZM303.207 254.16H304.472V252.16H303.207V254.16ZM303.638 252.608L301.564 255.743L303.232 256.847L305.306 253.712L303.638 252.608ZM301.566 256.85L303.705 260.055L305.368 258.945L303.23 255.74L301.566 256.85ZM304.537 258.5H303.283V260.5H304.537V258.5ZM304.134 258.975L302.669 256.602L300.967 257.652L302.432 260.025L304.134 258.975ZM300.967 256.602L299.502 258.975L301.204 260.025L302.669 257.652L300.967 256.602ZM300.353 258.5H299.093V260.5H300.353V258.5ZM299.925 260.055L302.064 256.85L300.4 255.74L298.261 258.945L299.925 260.055ZM302.066 255.743L299.992 252.608L298.324 253.712L300.398 256.847L302.066 255.743ZM299.158 254.16H300.412V252.16H299.158V254.16ZM299.554 253.675L300.943 255.989L302.658 254.96L301.269 252.646L299.554 253.675Z" fill="#4C4F54"/>
</g>
<path d="M4.024 53.096C3.384 53.096 2.792 52.9573 2.248 52.68C1.704 52.4027 1.26133 52.008 0.92 51.496L1.624 50.696C2.24267 51.6133 3.048 52.072 4.04 52.072C5.42667 52.072 6.12 51.2507 6.12 49.608V42.824H2.024V41.8H7.288V49.56C7.288 50.7333 7.01067 51.6187 6.456 52.216C5.912 52.8027 5.10133 53.096 4.024 53.096ZM13.5436 44.52C14.6423 44.52 15.485 44.7973 16.0716 45.352C16.6583 45.896 16.9516 46.7067 16.9516 47.784V53H15.8636V51.688C15.6076 52.1253 15.229 52.4667 14.7276 52.712C14.237 52.9573 13.6503 53.08 12.9676 53.08C12.029 53.08 11.2823 52.856 10.7276 52.408C10.173 51.96 9.89563 51.368 9.89563 50.632C9.89563 49.9173 10.1516 49.3413 10.6636 48.904C11.1863 48.4667 12.013 48.248 13.1436 48.248H15.8156V47.736C15.8156 47.0107 15.613 46.4613 15.2076 46.088C14.8023 45.704 14.2103 45.512 13.4316 45.512C12.8983 45.512 12.3863 45.6027 11.8956 45.784C11.405 45.9547 10.9836 46.1947 10.6316 46.504L10.1196 45.656C10.5463 45.2933 11.0583 45.016 11.6556 44.824C12.253 44.6213 12.8823 44.52 13.5436 44.52ZM13.1436 52.184C13.7836 52.184 14.333 52.04 14.7916 51.752C15.2503 51.4533 15.5916 51.0267 15.8156 50.472V49.096H13.1756C11.7356 49.096 11.0156 49.5973 11.0156 50.6C11.0156 51.0907 11.2023 51.48 11.5756 51.768C11.949 52.0453 12.4716 52.184 13.1436 52.184ZM24.3251 44.52C25.3811 44.52 26.2185 44.8293 26.8371 45.448C27.4665 46.056 27.7811 46.9467 27.7811 48.12V53H26.6451V48.232C26.6451 47.3573 26.4265 46.6907 25.9891 46.232C25.5518 45.7733 24.9278 45.544 24.1171 45.544C23.2105 45.544 22.4905 45.816 21.9571 46.36C21.4345 46.8933 21.1731 47.6347 21.1731 48.584V53H20.0371V44.584H21.1251V46.136C21.4345 45.624 21.8611 45.2293 22.4051 44.952C22.9598 44.664 23.5998 44.52 24.3251 44.52Z" fill="black"/>
<path d="M4.008 85.824V90.224H9.8V91.248H4.008V96H2.824V84.8H10.504V85.824H4.008ZM19.7558 92.144H12.7158C12.7798 93.0187 13.1158 93.728 13.7238 94.272C14.3318 94.8053 15.0998 95.072 16.0278 95.072C16.5504 95.072 17.0304 94.9813 17.4678 94.8C17.9051 94.608 18.2838 94.3307 18.6038 93.968L19.2438 94.704C18.8704 95.152 18.4011 95.4933 17.8358 95.728C17.2811 95.9627 16.6678 96.08 15.9958 96.08C15.1318 96.08 14.3638 95.8987 13.6918 95.536C13.0304 95.1627 12.5131 94.6507 12.1398 94C11.7664 93.3493 11.5798 92.6133 11.5798 91.792C11.5798 90.9707 11.7558 90.2347 12.1078 89.584C12.4704 88.9333 12.9611 88.4267 13.5798 88.064C14.2091 87.7013 14.9131 87.52 15.6918 87.52C16.4704 87.52 17.1691 87.7013 17.7878 88.064C18.4064 88.4267 18.8918 88.9333 19.2438 89.584C19.5958 90.224 19.7718 90.96 19.7718 91.792L19.7558 92.144ZM15.6918 88.496C14.8811 88.496 14.1984 88.7573 13.6438 89.28C13.0998 89.792 12.7904 90.464 12.7158 91.296H18.6838C18.6091 90.464 18.2944 89.792 17.7398 89.28C17.1958 88.7573 16.5131 88.496 15.6918 88.496ZM26.42 87.52C27.2093 87.52 27.924 87.7013 28.564 88.064C29.204 88.416 29.7053 88.9173 30.068 89.568C30.4307 90.2187 30.612 90.96 30.612 91.792C30.612 92.624 30.4307 93.3653 30.068 94.016C29.7053 94.6667 29.204 95.1733 28.564 95.536C27.924 95.8987 27.2093 96.08 26.42 96.08C25.716 96.08 25.0813 95.9307 24.516 95.632C23.9613 95.3333 23.5133 94.9013 23.172 94.336V96H22.084V84.128H23.22V89.184C23.572 88.64 24.02 88.2293 24.564 87.952C25.1187 87.664 25.7373 87.52 26.42 87.52ZM26.34 95.072C26.9267 95.072 27.46 94.9387 27.94 94.672C28.42 94.3947 28.7933 94.0053 29.06 93.504C29.3373 93.0027 29.476 92.432 29.476 91.792C29.476 91.152 29.3373 90.5813 29.06 90.08C28.7933 89.5787 28.42 89.1947 27.94 88.928C27.46 88.6507 26.9267 88.512 26.34 88.512C25.7427 88.512 25.204 88.6507 24.724 88.928C24.2547 89.1947 23.8813 89.5787 23.604 90.08C23.3373 90.5813 23.204 91.152 23.204 91.792C23.204 92.432 23.3373 93.0027 23.604 93.504C23.8813 94.0053 24.2547 94.3947 24.724 94.672C25.204 94.9387 25.7427 95.072 26.34 95.072Z" fill="black"/>
<path d="M14.456 131.8V143H13.32V134.04L8.92 141.576H8.36L3.96 134.088V143H2.824V131.8H3.8L8.664 140.104L13.48 131.8H14.456ZM20.8093 134.52C21.9079 134.52 22.7506 134.797 23.3373 135.352C23.9239 135.896 24.2173 136.707 24.2173 137.784V143H23.1293V141.688C22.8733 142.125 22.4946 142.467 21.9933 142.712C21.5026 142.957 20.9159 143.08 20.2333 143.08C19.2946 143.08 18.5479 142.856 17.9933 142.408C17.4386 141.96 17.1613 141.368 17.1613 140.632C17.1613 139.917 17.4173 139.341 17.9293 138.904C18.4519 138.467 19.2786 138.248 20.4093 138.248H23.0813V137.736C23.0813 137.011 22.8786 136.461 22.4733 136.088C22.0679 135.704 21.4759 135.512 20.6973 135.512C20.1639 135.512 19.6519 135.603 19.1613 135.784C18.6706 135.955 18.2493 136.195 17.8973 136.504L17.3853 135.656C17.8119 135.293 18.3239 135.016 18.9213 134.824C19.5186 134.621 20.1479 134.52 20.8093 134.52ZM20.4093 142.184C21.0493 142.184 21.5986 142.04 22.0573 141.752C22.5159 141.453 22.8573 141.027 23.0813 140.472V139.096H20.4413C19.0013 139.096 18.2812 139.597 18.2812 140.6C18.2812 141.091 18.4679 141.48 18.8413 141.768C19.2146 142.045 19.7373 142.184 20.4093 142.184ZM28.3908 136.232C28.6574 135.667 29.0521 135.24 29.5748 134.952C30.1081 134.664 30.7641 134.52 31.5428 134.52V135.624L31.2708 135.608C30.3854 135.608 29.6921 135.88 29.1908 136.424C28.6894 136.968 28.4388 137.731 28.4388 138.712V143H27.3028V134.584H28.3908V136.232Z" fill="black"/>
<path d="M9.848 185.008H3.608L2.264 188H1.032L6.152 176.8H7.32L12.44 188H11.192L9.848 185.008ZM9.416 184.048L6.728 178.032L4.04 184.048H9.416ZM18.3888 179.52C19.1781 179.52 19.8928 179.701 20.5328 180.064C21.1728 180.416 21.6741 180.917 22.0368 181.568C22.3994 182.219 22.5808 182.96 22.5808 183.792C22.5808 184.635 22.3994 185.381 22.0368 186.032C21.6741 186.683 21.1728 187.189 20.5328 187.552C19.9034 187.904 19.1888 188.08 18.3888 188.08C17.7061 188.08 17.0874 187.941 16.5328 187.664C15.9888 187.376 15.5408 186.96 15.1888 186.416V191.104H14.0528V179.584H15.1408V181.248C15.4821 180.693 15.9301 180.267 16.4848 179.968C17.0501 179.669 17.6848 179.52 18.3888 179.52ZM18.3088 187.072C18.8954 187.072 19.4288 186.939 19.9088 186.672C20.3888 186.395 20.7621 186.005 21.0288 185.504C21.3061 185.003 21.4448 184.432 21.4448 183.792C21.4448 183.152 21.3061 182.587 21.0288 182.096C20.7621 181.595 20.3888 181.205 19.9088 180.928C19.4288 180.651 18.8954 180.512 18.3088 180.512C17.7114 180.512 17.1728 180.651 16.6927 180.928C16.2234 181.205 15.8501 181.595 15.5728 182.096C15.3061 182.587 15.1728 183.152 15.1728 183.792C15.1728 184.432 15.3061 185.003 15.5728 185.504C15.8501 186.005 16.2234 186.395 16.6927 186.672C17.1728 186.939 17.7114 187.072 18.3088 187.072ZM25.9845 181.232C26.2512 180.667 26.6458 180.24 27.1685 179.952C27.7018 179.664 28.3578 179.52 29.1365 179.52V180.624L28.8645 180.608C27.9792 180.608 27.2858 180.88 26.7845 181.424C26.2832 181.968 26.0325 182.731 26.0325 183.712V188H24.8965V179.584H25.9845V181.232Z" fill="black"/>
<path d="M14.456 220.8V232H13.32V223.04L8.92 230.576H8.36L3.96 223.088V232H2.824V220.8H3.8L8.664 229.104L13.48 220.8H14.456ZM20.8093 223.52C21.9079 223.52 22.7506 223.797 23.3373 224.352C23.9239 224.896 24.2173 225.707 24.2173 226.784V232H23.1293V230.688C22.8733 231.125 22.4946 231.467 21.9933 231.712C21.5026 231.957 20.9159 232.08 20.2333 232.08C19.2946 232.08 18.5479 231.856 17.9933 231.408C17.4386 230.96 17.1613 230.368 17.1613 229.632C17.1613 228.917 17.4173 228.341 17.9293 227.904C18.4519 227.467 19.2786 227.248 20.4093 227.248H23.0813V226.736C23.0813 226.011 22.8786 225.461 22.4733 225.088C22.0679 224.704 21.4759 224.512 20.6973 224.512C20.1639 224.512 19.6519 224.603 19.1613 224.784C18.6706 224.955 18.2493 225.195 17.8973 225.504L17.3853 224.656C17.8119 224.293 18.3239 224.016 18.9213 223.824C19.5186 223.621 20.1479 223.52 20.8093 223.52ZM20.4093 231.184C21.0493 231.184 21.5986 231.04 22.0573 230.752C22.5159 230.453 22.8573 230.027 23.0813 229.472V228.096H20.4413C19.0013 228.096 18.2812 228.597 18.2812 229.6C18.2812 230.091 18.4679 230.48 18.8413 230.768C19.2146 231.045 19.7373 231.184 20.4093 231.184ZM34.2185 223.584L30.0105 233.008C29.6692 233.797 29.2745 234.357 28.8265 234.688C28.3785 235.019 27.8398 235.184 27.2105 235.184C26.8052 235.184 26.4265 235.12 26.0745 234.992C25.7225 234.864 25.4185 234.672 25.1625 234.416L25.6905 233.568C26.1172 233.995 26.6292 234.208 27.2265 234.208C27.6105 234.208 27.9358 234.101 28.2025 233.888C28.4798 233.675 28.7358 233.312 28.9705 232.8L29.3385 231.984L25.5785 223.584H26.7625L29.9305 230.736L33.0985 223.584H34.2185Z" fill="black"/>
<defs>
<clipPath id="clip0">
<rect width="281" height="284" fill="white" transform="translate(24)"/>
</clipPath>
</defs>
</svg>
