<svg width="50" height="50" viewBox="0 0 50 50" fill="none" xmlns="http://www.w3.org/2000/svg">
<path d="M34.1713 29.8877H20.2314L20.9313 28.3023L32.5608 28.2789C32.9541 28.2789 33.2912 27.9665 33.3614 27.5344L34.9719 17.5095C35.014 17.2466 34.9508 16.9758 34.7963 16.7702C34.72 16.669 34.6247 16.5874 34.5172 16.5312C34.4097 16.4751 34.2925 16.4456 34.1737 16.4448L19.3793 16.3901L19.2529 15.7289C19.1733 15.3072 18.8316 15 18.443 15H14.8263C14.6072 15 14.397 15.0968 14.242 15.2691C14.0871 15.4415 14 15.6752 14 15.9189C14 16.1626 14.0871 16.3964 14.242 16.5687C14.397 16.741 14.6072 16.8379 14.8263 16.8379H17.7735L18.3259 19.7586L19.686 27.0814L17.935 30.2599C17.8441 30.3964 17.7893 30.5585 17.7769 30.7278C17.7645 30.8971 17.7949 31.0669 17.8648 31.2179C18.0052 31.5277 18.2885 31.7229 18.6022 31.7229H20.0722C19.7588 32.1858 19.5896 32.7497 19.59 33.3291C19.59 34.8025 20.6668 36 21.9918 36C23.3167 36 24.3935 34.8025 24.3935 33.3291C24.3935 32.7486 24.2203 32.1837 23.9113 31.7229H27.6824C27.369 32.1858 27.1997 32.7497 27.2002 33.3291C27.2002 34.8025 28.277 36 29.6019 36C30.9269 36 32.0037 34.8025 32.0037 33.3291C32.0037 32.7486 31.8305 32.1837 31.5215 31.7229H34.1737C34.6278 31.7229 35 31.3116 35 30.804C34.9986 30.5606 34.9108 30.3276 34.7555 30.1559C34.6003 29.9842 34.3903 29.8878 34.1713 29.8877ZM19.7234 18.2019L33.2022 18.2514L31.882 26.4723L21.2942 26.4931L19.7234 18.2019ZM21.9918 34.1517C21.5844 34.1517 21.252 33.7821 21.252 33.3291C21.252 32.8762 21.5844 32.5065 21.9918 32.5065C22.3991 32.5065 22.7315 32.8762 22.7315 33.3291C22.7315 33.5473 22.6535 33.7565 22.5148 33.9108C22.3761 34.0651 22.1879 34.1517 21.9918 34.1517ZM29.6019 34.1517C29.1946 34.1517 28.8622 33.7821 28.8622 33.3291C28.8622 32.8762 29.1946 32.5065 29.6019 32.5065C30.0093 32.5065 30.3417 32.8762 30.3417 33.3291C30.3417 33.5473 30.2637 33.7565 30.125 33.9108C29.9863 34.0651 29.7981 34.1517 29.6019 34.1517Z" fill="white"/>
<rect x="0.5" y="0.5" width="49" height="49" rx="14.5" stroke="white"/>
</svg>
